<svg width="58" height="58" viewBox="0 0 58 58" fill="none" xmlns="http://www.w3.org/2000/svg">
<g clip-path="url(#clip0_1206_377)">
<path d="M51.556 9.6665H6.44488C5.59029 9.6665 4.77071 10.006 4.16642 10.6103C3.56214 11.2146 3.22266 12.0341 3.22266 12.8887V45.111C3.22266 45.9655 3.56214 46.7851 4.16642 47.3894C4.77071 47.9937 5.59029 48.3332 6.44488 48.3332H30.6115L31.5299 47.2054L33.0282 45.3687L32.8832 45.111H6.44488V12.8887H51.556V26.6798C52.7801 27.4719 53.8682 28.4567 54.7782 29.596V12.8887C54.7782 12.0341 54.4387 11.2146 53.8344 10.6103C53.2302 10.006 52.4106 9.6665 51.556 9.6665Z" fill="black"/>
<path d="M11.2773 19.3335H38.6662V21.9113H11.2773V19.3335Z" fill="black"/>
<path d="M11.2773 25.7778H28.9996V28.3556H11.2773V25.7778Z" fill="black"/>
<path d="M11.2773 37.0557H27.3885V39.6334H11.2773V37.0557Z" fill="black"/>
<path d="M44.2401 27.7596C42.1785 27.7432 40.1598 28.3492 38.4479 29.4983C36.7361 30.6474 35.4107 32.2861 34.645 34.2004C33.8793 36.1147 33.7088 38.2155 34.156 40.2282C34.6031 42.2408 35.647 44.0718 37.1513 45.4818L34.0257 49.3002L35.4757 55.1163L41.3724 47.9307C43.2389 48.4826 45.2253 48.4826 47.0918 47.9307L52.9885 55.1163L54.4385 49.3002L51.3129 45.4818C52.8172 44.0718 53.8611 42.2408 54.3082 40.2282C54.7553 38.2155 54.5849 36.1147 53.8192 34.2004C53.0535 32.2861 51.7281 30.6474 50.0162 29.4983C48.3044 28.3492 46.2857 27.7432 44.224 27.7596H44.2401ZM44.2401 44.9663C42.871 44.9472 41.5381 44.5238 40.409 43.7493C39.2799 42.9748 38.4049 41.8838 37.8942 40.6134C37.3834 39.343 37.2596 37.95 37.5383 36.6094C37.8171 35.2689 38.4859 34.0406 39.4608 33.0792C40.4357 32.1177 41.673 31.4659 43.0173 31.2057C44.3616 30.9455 45.7528 31.0885 47.016 31.6168C48.2792 32.1451 49.358 33.0351 50.1168 34.1748C50.8756 35.3145 51.2806 36.6532 51.2807 38.0224C51.2637 39.8755 50.5134 41.6465 49.1939 42.9478C47.8745 44.2491 46.0933 44.9749 44.2401 44.9663Z" fill="black"/>
</g>
<defs>
<clipPath id="clip0_1206_377">
<rect width="58" height="58" fill="white"/>
</clipPath>
</defs>
</svg>
