<svg width="56" height="56" viewBox="0 0 56 56" fill="none" xmlns="http://www.w3.org/2000/svg">
<path fill-rule="evenodd" clip-rule="evenodd" d="M24.834 8.37207C14.5481 10.0875 6.75 19.241 6.75 30.1976V36.0917C4.79549 36.2203 3.25 37.8464 3.25 39.8335V42.8335C3.25 44.9045 4.92894 46.5835 7 46.5835H49.6667C51.7377 46.5835 53.4167 44.9045 53.4167 42.8335V39.8335C53.4167 37.8464 51.8712 36.2203 49.9167 36.0917V30.1965C49.9167 19.2413 42.1192 10.0882 31.834 8.37229V11.9328C40.1186 13.6082 46.4167 21.1159 46.4167 30.1965V36.0835H10.25V30.1976C10.25 21.1156 16.5488 13.6075 24.834 11.9325V8.37207ZM7 39.5835H8.5H48.1667H49.6667C49.8047 39.5835 49.9167 39.6954 49.9167 39.8335V42.8335C49.9167 42.9715 49.8047 43.0835 49.6667 43.0835H7C6.86193 43.0835 6.75 42.9715 6.75 42.8335V39.8335C6.75 39.6954 6.86193 39.5835 7 39.5835Z" fill="black"/>
<path d="M24.834 4H31.834V25H24.834V4Z" stroke="black" stroke-width="3.5" stroke-linecap="round" stroke-linejoin="round"/>
</svg>
